<?xml version="1.0" encoding="utf-8"?>
<!-- Generator: Adobe Illustrator 21.1.0, SVG Export Plug-In . SVG Version: 6.00 Build 0)  -->
<svg version="1.1" id="Слой_1" xmlns="http://www.w3.org/2000/svg" xmlns:xlink="http://www.w3.org/1999/xlink" x="0px" y="0px"
	 viewBox="0 0 12 16" enable-background="new 0 0 12 16" xml:space="preserve">
<g opacity="0.5">
	<path fill="#5B6D7C" d="M6,0C2.7,0,0,2.6,0,5.8c0,4,5.4,9.8,5.6,10c0.2,0.2,0.6,0.2,0.8,0c0,0,0,0,0,0c0.2-0.2,5.6-6.1,5.6-10
		C12,2.6,9.3,0,6,0z M6,14.7c-1.8-2.1-4.9-6.2-4.9-8.9C1.1,3.2,3.3,1,6,1s4.9,2.1,4.9,4.8C10.9,8.5,7.8,12.6,6,14.7z"/>
	<path fill="#5B6D7C" d="M6,2.9c-1.7,0-3,1.3-3,2.9c0,1.6,1.3,2.9,3,2.9s3-1.3,3-2.9C9,4.2,7.6,2.9,6,2.9L6,2.9z M6,7.7
		C4.9,7.7,4,6.8,4,5.8c0-1,0.9-1.9,1.9-1.9s1.9,0.8,1.9,1.9S7,7.7,6,7.7z"/>
</g>
</svg>
