<?xml version="1.0" encoding="utf-8"?>
<!-- Generator: Adobe Illustrator 21.1.0, SVG Export Plug-In . SVG Version: 6.00 Build 0)  -->
<svg version="1.1" id="Слой_1" xmlns="http://www.w3.org/2000/svg" xmlns:xlink="http://www.w3.org/1999/xlink" x="0px" y="0px"
	 viewBox="0 0 16 16" enable-background="new 0 0 16 16" xml:space="preserve">
<g>
	<path fill="#5B6D7C" d="M12.2,15.6c0,0.2,0.2,0.4,0.4,0.4c0.2,0,0.4-0.2,0.4-0.4V1.4l2.3,2.5c0.1,0.2,0.4,0.2,0.5,0c0,0,0,0,0,0
		c0.2-0.2,0.2-0.4,0-0.6l-3-3.2c-0.1-0.2-0.4-0.2-0.5,0c0,0,0,0,0,0l-3,3.2c-0.2,0.2-0.2,0.4,0,0.6c0.1,0.2,0.4,0.2,0.5,0
		c0,0,0,0,0,0l2.3-2.5L12.2,15.6C12.2,15.6,12.2,15.6,12.2,15.6z M6.6,12.1c-0.1-0.2-0.4-0.2-0.5,0c0,0,0,0,0,0l-2.3,2.5V0.4
		C3.8,0.2,3.6,0,3.4,0C3.2,0,3,0.2,3,0.4v14.2l-2.3-2.5c-0.1-0.2-0.4-0.2-0.5,0c0,0,0,0,0,0c-0.2,0.2-0.2,0.4,0,0.6l3,3.2
		c0.1,0.2,0.4,0.2,0.5,0c0,0,0,0,0,0l3-3.2C6.8,12.5,6.8,12.3,6.6,12.1z"/>
</g>
</svg>
