<?xml version="1.0" encoding="utf-8"?>
<!-- Generator: Adobe Illustrator 21.1.0, SVG Export Plug-In . SVG Version: 6.00 Build 0)  -->
<svg version="1.1" id="Слой_1" xmlns="http://www.w3.org/2000/svg" xmlns:xlink="http://www.w3.org/1999/xlink" x="0px" y="0px"
	 viewBox="0 0 16 16" enable-background="new 0 0 16 16" xml:space="preserve">
<g>
	<path fill="#5EABDD" d="M15.7,7.7h-0.9c-0.2-3.5-3-6.3-6.4-6.4V0.3C8.3,0.2,8.2,0,8,0C7.9,0,7.7,0.1,7.7,0.3c0,0,0,0,0,0v0.9
		c-3.5,0.2-6.3,3-6.4,6.4H0.3C0.2,7.7,0,7.8,0,8s0.1,0.3,0.3,0.3c0,0,0,0,0,0h0.9c0.2,3.5,3,6.3,6.4,6.4v0.9C7.7,15.9,7.8,16,8,16
		s0.3-0.1,0.3-0.3c0,0,0,0,0,0v-0.9c3.5-0.2,6.3-3,6.4-6.4h0.9C15.9,8.3,16,8.2,16,8C16,7.8,15.9,7.7,15.7,7.7
		C15.7,7.7,15.7,7.7,15.7,7.7L15.7,7.7z M7.7,1.9v1C5.1,3,3,5.1,2.9,7.7h-1C2.1,4.5,4.6,2,7.7,1.9z M7.7,14.1
		C4.6,14,2.1,11.5,1.9,8.3h1C3,10.9,5.1,13,7.7,13.1C7.7,13.1,7.7,14.1,7.7,14.1z M8,10.5c-0.2,0-0.3,0.1-0.3,0.3l0,0v1.7
		c-2.2-0.2-4-1.9-4.2-4.2h1.7c0.2,0,0.3-0.1,0.3-0.3c0-0.2-0.1-0.3-0.3-0.3c0,0,0,0,0,0H3.5c0.2-2.2,1.9-4,4.2-4.2v1.7
		c0,0.2,0.1,0.3,0.3,0.3c0.2,0,0.3-0.1,0.3-0.3c0,0,0,0,0,0V3.5c2.4,0.2,4.2,2.1,4.2,4.5c0,2.4-1.8,4.3-4.2,4.5v-1.7
		C8.3,10.7,8.2,10.5,8,10.5z M8.3,14.1v-1c2.6-0.2,4.7-2.2,4.8-4.8h1C14,11.5,11.5,14,8.3,14.1z M13.2,7.7C13,5.1,10.9,3,8.3,2.9v-1
		C11.5,2,14,4.6,14.1,7.7L13.2,7.7L13.2,7.7z"/>
	<path fill="#5EABDD" d="M11.1,8.3h1.2C12.7,8.3,13,8.2,13,8c0-0.2-0.3-0.3-0.6-0.3h-1.2c-0.3,0-0.6,0.1-0.6,0.3
		C10.5,8.2,10.8,8.3,11.1,8.3z"/>
</g>
</svg>
