<?xml version="1.0" encoding="utf-8"?>
<!-- Generator: Adobe Illustrator 21.1.0, SVG Export Plug-In . SVG Version: 6.00 Build 0)  -->
<svg version="1.1" id="Слой_1" xmlns="http://www.w3.org/2000/svg" xmlns:xlink="http://www.w3.org/1999/xlink" x="0px" y="0px"
	 viewBox="0 0 16 18" enable-background="new 0 0 16 18" xml:space="preserve">
<path fill="#FFFFFF" d="M8,0C3.6,0,0,0.5,0,3.8v9.5c0,0.8,0.4,1.6,1,2.1v1.7C1,17.6,1.5,18,2,18h1c0.6,0,1-0.4,1-0.9v-0.9h8v0.9
	c0,0.5,0.4,0.9,1,0.9h1c0.6,0,1-0.4,1-0.9v-1.7c0.6-0.5,1-1.3,1-2.1V3.8C16,0.5,12.4,0,8,0z M3.5,14.2c-0.8,0-1.5-0.6-1.5-1.4
	c0-0.8,0.7-1.4,1.5-1.4S5,12,5,12.8S4.3,14.2,3.5,14.2L3.5,14.2z M12.5,14.2c-0.8,0-1.5-0.6-1.5-1.4c0-0.8,0.7-1.4,1.5-1.4
	S14,12,14,12.8C14,13.6,13.3,14.2,12.5,14.2L12.5,14.2z M14,8.5H2V3.8h12V8.5z"/>
</svg>
