<?xml version="1.0" encoding="utf-8"?>
<!-- Generator: Adobe Illustrator 21.1.0, SVG Export Plug-In . SVG Version: 6.00 Build 0)  -->
<svg version="1.1" id="Слой_1" xmlns="http://www.w3.org/2000/svg" xmlns:xlink="http://www.w3.org/1999/xlink" x="0px" y="0px"
	 viewBox="0 0 10 20" enable-background="new 0 0 10 20" xml:space="preserve">
<g>
	<path fill="#FFFFFF" d="M4.5,3.2c0.4,0,0.8-0.2,1.1-0.5C5.8,2.4,6,2,6,1.6c0-0.4-0.2-0.8-0.5-1.1C5.2,0.1,4.8,0,4.4,0
		C4,0,3.7,0.2,3.4,0.5C3.1,0.8,2.9,1.2,3,1.7c0,0.4,0.2,0.8,0.5,1.1C3.7,3.1,4.1,3.2,4.5,3.2L4.5,3.2z M9.6,8.6L7.4,7.3L5.6,4.3
		C5.2,3.8,4.8,3.6,4.3,3.6c-0.3,0-0.7,0.2-1,0.5L0.5,7C0.4,7.1,0.4,7.2,0.4,7.4L0,10.6v0.1c0,0.2,0.1,0.4,0.2,0.5
		c0.1,0.1,0.3,0.2,0.5,0.2c0.2,0,0.3-0.1,0.5-0.2c0.1-0.1,0.2-0.3,0.2-0.5L1.7,8l1-1l-0.9,7.8l-1.6,3.7c-0.1,0.2-0.1,0.3-0.1,0.5
		c0,0.3,0.1,0.6,0.3,0.8C0.6,19.9,0.9,20,1.1,20c0.4,0,0.7-0.2,0.9-0.6l1.7-4c0,0,0-0.1,0-0.1c0-0.1,0.1-0.1,0.1-0.2
		c0-0.1,0-0.1,0-0.2L4.1,13l1.7,6.3C6,19.8,6.4,20,6.8,20c0.3,0,0.5-0.1,0.7-0.3c0.2-0.2,0.3-0.5,0.3-0.8c0,0,0-0.1,0-0.1
		c0,0,0-0.1,0-0.1L5.4,10l0.3-2.8l0.7,1.1c0.1,0.1,0.1,0.2,0.2,0.2l2.4,1.4C9.1,9.9,9.2,10,9.3,10c0.2,0,0.4-0.1,0.5-0.2
		C9.9,9.6,10,9.4,10,9.2C10,9,9.8,8.7,9.6,8.6z"/>
</g>
</svg>
