<?xml version="1.0" encoding="UTF-8"?><!DOCTYPE svg PUBLIC "-//W3C//DTD SVG 1.1//EN" "http://www.w3.org/Graphics/SVG/1.1/DTD/svg11.dtd"><svg xmlns="http://www.w3.org/2000/svg"><symbol id="icon-car" viewBox="0 0 18 16">
    <path d="M15.9 1c-.2-.6-.8-1-1.4-1h-11c-.7 0-1.2.4-1.4 1L0 7v8c0 .6.4 1 1 1h1c.6 0 1-.4 1-1v-1h12v1c0 .6.4 1 1 1h1c.6 0 1-.4 1-1V7l-2.1-6zM3.5 11C2.7 11 2 10.3 2 9.5S2.7 8 3.5 8 5 8.7 5 9.5 4.3 11 3.5 11zm11 0c-.8 0-1.5-.7-1.5-1.5S13.7 8 14.5 8s1.5.7 1.5 1.5-.7 1.5-1.5 1.5zM2 6l1.5-4.5h11L16 6H2z"/>
</symbol><symbol id="icon-facebook" viewBox="0 0 10 19">
    <title>
        facebook
    </title>
    <path d="M9.766.157v2.946H8.014c-.64 0-1.071.134-1.295.402-.223.268-.335.67-.335 1.205v2.11h3.27l-.435 3.303H6.384v8.471H2.97v-8.47H.123V6.82H2.97V4.387c0-1.384.387-2.457 1.161-3.22C4.904.404 5.934.023 7.222.023c1.093 0 1.941.045 2.544.134z" fill-rule="evenodd"/>
</symbol><symbol id="icon-marker" viewBox="0 0 12 16">
    <g opacity=".5">
        <path d="M6 0C2.7 0 0 2.6 0 5.8c0 4 5.4 9.8 5.6 10 .2.2.6.2.8 0 .2-.2 5.6-6.1 5.6-10C12 2.6 9.3 0 6 0zm0 14.7c-1.8-2.1-4.9-6.2-4.9-8.9C1.1 3.2 3.3 1 6 1s4.9 2.1 4.9 4.8c0 2.7-3.1 6.8-4.9 8.9z"/>
        <path d="M6 2.9c-1.7 0-3 1.3-3 2.9 0 1.6 1.3 2.9 3 2.9s3-1.3 3-2.9c0-1.6-1.4-2.9-3-2.9zm0 4.8c-1.1 0-2-.9-2-1.9 0-1 .9-1.9 1.9-1.9s1.9.8 1.9 1.9S7 7.7 6 7.7z"/>
    </g>
</symbol><symbol id="icon-route" viewBox="0 0 16 16">
    <path d="M12.2 15.6c0 .2.2.4.4.4s.4-.2.4-.4V1.4l2.3 2.5c.1.2.4.2.5 0 .2-.2.2-.4 0-.6l-3-3.2c-.1-.2-.4-.2-.5 0l-3 3.2c-.2.2-.2.4 0 .6.1.2.4.2.5 0l2.3-2.5.1 14.2zm-5.6-3.5c-.1-.2-.4-.2-.5 0l-2.3 2.5V.4c0-.2-.2-.4-.4-.4S3 .2 3 .4v14.2L.7 12.1c-.1-.2-.4-.2-.5 0-.2.2-.2.4 0 .6l3 3.2c.1.2.4.2.5 0l3-3.2c.1-.2.1-.4-.1-.6z"/>
</symbol><symbol id="icon-target" viewBox="0 0 16 16">
    <g>
        <path d="M15.7 7.7h-.9c-.2-3.5-3-6.3-6.4-6.4v-1C8.3.2 8.2 0 8 0c-.1 0-.3.1-.3.3v.9c-3.5.2-6.3 3-6.4 6.4h-1c-.1.1-.3.2-.3.4s.1.3.3.3h.9c.2 3.5 3 6.3 6.4 6.4v.9c.1.3.2.4.4.4s.3-.1.3-.3v-.9c3.5-.2 6.3-3 6.4-6.4h.9c.3-.1.4-.2.4-.4s-.1-.3-.3-.3zm-8-5.8v1C5.1 3 3 5.1 2.9 7.7h-1C2.1 4.5 4.6 2 7.7 1.9zm0 12.2c-3.1-.1-5.6-2.6-5.8-5.8h1c.1 2.6 2.2 4.7 4.8 4.8v1zm.3-3.6c-.2 0-.3.1-.3.3v1.7c-2.2-.2-4-1.9-4.2-4.2h1.7c.2 0 .3-.1.3-.3 0-.2-.1-.3-.3-.3H3.5c.2-2.2 1.9-4 4.2-4.2v1.7c0 .2.1.3.3.3.2 0 .3-.1.3-.3V3.5c2.4.2 4.2 2.1 4.2 4.5s-1.8 4.3-4.2 4.5v-1.7c0-.1-.1-.3-.3-.3zm.3 3.6v-1c2.6-.2 4.7-2.2 4.8-4.8h1c-.1 3.2-2.6 5.7-5.8 5.8zm4.9-6.4C13 5.1 10.9 3 8.3 2.9v-1c3.2.1 5.7 2.7 5.8 5.8h-.9z"/>
        <path d="M11.1 8.3h1.2c.4 0 .7-.1.7-.3 0-.2-.3-.3-.6-.3h-1.2c-.3 0-.6.1-.6.3-.1.2.2.3.5.3z"/>
    </g>
</symbol><symbol id="icon-train" viewBox="0 0 16 18">
    <path d="M8 0C3.6 0 0 .5 0 3.8v9.5c0 .8.4 1.6 1 2.1v1.7c0 .5.5.9 1 .9h1c.6 0 1-.4 1-.9v-.9h8v.9c0 .5.4.9 1 .9h1c.6 0 1-.4 1-.9v-1.7c.6-.5 1-1.3 1-2.1V3.8C16 .5 12.4 0 8 0zM3.5 14.2c-.8 0-1.5-.6-1.5-1.4 0-.8.7-1.4 1.5-1.4S5 12 5 12.8s-.7 1.4-1.5 1.4zm9 0c-.8 0-1.5-.6-1.5-1.4 0-.8.7-1.4 1.5-1.4s1.5.6 1.5 1.4c0 .8-.7 1.4-1.5 1.4zM14 8.5H2V3.8h12v4.7z"/>
</symbol><symbol id="icon-walk" viewBox="0 0 10 20">
    <path d="M4.5 3.2c.4 0 .8-.2 1.1-.5.2-.3.4-.7.4-1.1 0-.4-.2-.8-.5-1.1C5.2.1 4.8 0 4.4 0c-.4 0-.7.2-1 .5-.3.3-.5.7-.4 1.2 0 .4.2.8.5 1.1.2.3.6.4 1 .4zm5.1 5.4L7.4 7.3l-1.8-3c-.4-.5-.8-.7-1.3-.7-.3 0-.7.2-1 .5L.5 7c-.1.1-.1.2-.1.4L0 10.6v.1c0 .2.1.4.2.5.1.1.3.2.5.2s.3-.1.5-.2c.1-.1.2-.3.2-.5L1.7 8l1-1-.9 7.8-1.6 3.7c-.1.2-.1.3-.1.5 0 .3.1.6.3.8.2.1.5.2.7.2.4 0 .7-.2.9-.6l1.7-4v-.1c0-.1.1-.1.1-.2v-.2l.3-1.9 1.7 6.3c.2.5.6.7 1 .7.3 0 .5-.1.7-.3.2-.2.3-.5.3-.8v-.1-.1L5.4 10l.3-2.8.7 1.1c.1.1.1.2.2.2L9 9.9c.1 0 .2.1.3.1.2 0 .4-.1.5-.2.1-.2.2-.4.2-.6 0-.2-.2-.5-.4-.6z"/>
</symbol></svg>